<?xml version="1.0" encoding="UTF-8" standalone="no"?>
<!DOCTYPE svg PUBLIC "-//W3C//DTD SVG 1.1//EN"
 "http://www.w3.org/Graphics/SVG/1.1/DTD/svg11.dtd">
<!-- Generated by graphviz version 2.40.1 (20161225.0304)
 -->
<!-- Title: G Pages: 1 -->
<svg width="713pt" height="1964pt"
 viewBox="0.00 0.00 713.38 1964.00" xmlns="http://www.w3.org/2000/svg" xmlns:xlink="http://www.w3.org/1999/xlink">
<g id="graph0" class="graph" transform="scale(1 1) rotate(0) translate(4 1960)">
<title>G</title>
<polygon fill="#ffffff" stroke="transparent" points="-4,4 -4,-1960 709.3809,-1960 709.3809,4 -4,4"/>
<g id="clust1" class="cluster">
<title>cluster_Global</title>
<path fill="none" stroke="#c0c0c0" d="M497.3594,-8C497.3594,-8 685.3809,-8 685.3809,-8 691.3809,-8 697.3809,-14 697.3809,-20 697.3809,-20 697.3809,-1936 697.3809,-1936 697.3809,-1942 691.3809,-1948 685.3809,-1948 685.3809,-1948 497.3594,-1948 497.3594,-1948 491.3594,-1948 485.3594,-1942 485.3594,-1936 485.3594,-1936 485.3594,-20 485.3594,-20 485.3594,-14 491.3594,-8 497.3594,-8"/>
<text text-anchor="middle" x="591.3701" y="-1935.2" font-family="Times,serif" font-size="11.00" fill="#c0c0c0">Global</text>
</g>
<g id="clust2" class="cluster">
<title>cluster_\AppBundle</title>
<path fill="none" stroke="#c0c0c0" d="M505.3594,-16C505.3594,-16 677.3809,-16 677.3809,-16 683.3809,-16 689.3809,-22 689.3809,-28 689.3809,-28 689.3809,-1909 689.3809,-1909 689.3809,-1915 683.3809,-1921 677.3809,-1921 677.3809,-1921 505.3594,-1921 505.3594,-1921 499.3594,-1921 493.3594,-1915 493.3594,-1909 493.3594,-1909 493.3594,-28 493.3594,-28 493.3594,-22 499.3594,-16 505.3594,-16"/>
<text text-anchor="middle" x="591.3701" y="-1908.2" font-family="Times,serif" font-size="11.00" fill="#c0c0c0">AppBundle</text>
</g>
<g id="clust3" class="cluster">
<title>cluster_\AppBundle\Repository</title>
<path fill="none" stroke="#c0c0c0" d="M518.0589,-1607C518.0589,-1607 664.6814,-1607 664.6814,-1607 670.6814,-1607 676.6814,-1613 676.6814,-1619 676.6814,-1619 676.6814,-1882 676.6814,-1882 676.6814,-1888 670.6814,-1894 664.6814,-1894 664.6814,-1894 518.0589,-1894 518.0589,-1894 512.0589,-1894 506.0589,-1888 506.0589,-1882 506.0589,-1882 506.0589,-1619 506.0589,-1619 506.0589,-1613 512.0589,-1607 518.0589,-1607"/>
<text text-anchor="middle" x="591.3701" y="-1881.2" font-family="Times,serif" font-size="11.00" fill="#c0c0c0">Repository</text>
</g>
<g id="clust4" class="cluster">
<title>cluster_\AppBundle\Controller</title>
<path fill="none" stroke="#c0c0c0" d="M514.7583,-1150C514.7583,-1150 667.9819,-1150 667.9819,-1150 673.9819,-1150 679.9819,-1156 679.9819,-1162 679.9819,-1162 679.9819,-1587 679.9819,-1587 679.9819,-1593 673.9819,-1599 667.9819,-1599 667.9819,-1599 514.7583,-1599 514.7583,-1599 508.7583,-1599 502.7583,-1593 502.7583,-1587 502.7583,-1587 502.7583,-1162 502.7583,-1162 502.7583,-1156 508.7583,-1150 514.7583,-1150"/>
<text text-anchor="middle" x="591.3701" y="-1586.2" font-family="Times,serif" font-size="11.00" fill="#c0c0c0">Controller</text>
</g>
<g id="clust5" class="cluster">
<title>cluster_\AppBundle\Entity</title>
<path fill="none" stroke="#c0c0c0" d="M551.0642,-693C551.0642,-693 631.676,-693 631.676,-693 637.676,-693 643.676,-699 643.676,-705 643.676,-705 643.676,-1130 643.676,-1130 643.676,-1136 637.676,-1142 631.676,-1142 631.676,-1142 551.0642,-1142 551.0642,-1142 545.0642,-1142 539.0642,-1136 539.0642,-1130 539.0642,-1130 539.0642,-705 539.0642,-705 539.0642,-699 545.0642,-693 551.0642,-693"/>
<text text-anchor="middle" x="591.3701" y="-1129.2" font-family="Times,serif" font-size="11.00" fill="#c0c0c0">Entity</text>
</g>
<g id="clust6" class="cluster">
<title>cluster_\AppBundle\Form</title>
<path fill="none" stroke="#c0c0c0" d="M534.5615,-398C534.5615,-398 648.1787,-398 648.1787,-398 654.1787,-398 660.1787,-404 660.1787,-410 660.1787,-410 660.1787,-673 660.1787,-673 660.1787,-679 654.1787,-685 648.1787,-685 648.1787,-685 534.5615,-685 534.5615,-685 528.5615,-685 522.5615,-679 522.5615,-673 522.5615,-673 522.5615,-410 522.5615,-410 522.5615,-404 528.5615,-398 534.5615,-398"/>
<text text-anchor="middle" x="591.3701" y="-672.2" font-family="Times,serif" font-size="11.00" fill="#c0c0c0">Form</text>
</g>
<g id="clust7" class="cluster">
<title>cluster_\AppBundle\Tests</title>
<path fill="none" stroke="#c0c0c0" d="M513.3594,-68C513.3594,-68 669.3809,-68 669.3809,-68 675.3809,-68 681.3809,-74 681.3809,-80 681.3809,-80 681.3809,-378 681.3809,-378 681.3809,-384 675.3809,-390 669.3809,-390 669.3809,-390 513.3594,-390 513.3594,-390 507.3594,-390 501.3594,-384 501.3594,-378 501.3594,-378 501.3594,-80 501.3594,-80 501.3594,-74 507.3594,-68 513.3594,-68"/>
<text text-anchor="middle" x="591.3701" y="-377.2" font-family="Times,serif" font-size="11.00" fill="#c0c0c0">Tests</text>
</g>
<g id="clust8" class="cluster">
<title>cluster_\AppBundle\Tests\Controller</title>
<path fill="none" stroke="#c0c0c0" d="M521.3594,-76C521.3594,-76 661.3809,-76 661.3809,-76 667.3809,-76 673.3809,-82 673.3809,-88 673.3809,-88 673.3809,-351 673.3809,-351 673.3809,-357 667.3809,-363 661.3809,-363 661.3809,-363 521.3594,-363 521.3594,-363 515.3594,-363 509.3594,-357 509.3594,-351 509.3594,-351 509.3594,-88 509.3594,-88 509.3594,-82 515.3594,-76 521.3594,-76"/>
<text text-anchor="middle" x="591.3701" y="-350.2" font-family="Times,serif" font-size="11.00" fill="#c0c0c0">Controller</text>
</g>
<!-- \\AppBundle\\Repository\\MembreRepository -->
<g id="node1" class="node">
<title>\\AppBundle\\Repository\\MembreRepository</title>
<polygon fill="none" stroke="#000000" points="651.9879,-1867 530.7523,-1867 530.7523,-1831 651.9879,-1831 651.9879,-1867"/>
<text text-anchor="middle" x="591.3701" y="-1845.7" font-family="Courier,monospace" font-size="11.00" fill="#000000">MembreRepository</text>
</g>
<!-- \\Doctrine\\ORM\\EntityRepository -->
<g id="node33" class="node">
<title>\\Doctrine\\ORM\\EntityRepository</title>
<ellipse fill="none" stroke="#000000" cx="219.3792" cy="-1741" rx="128.9854" ry="18"/>
<text text-anchor="middle" x="219.3792" y="-1736.8" font-family="Times,serif" font-size="14.00" fill="#c0c0c0">\Doctrine\ORM\EntityRepository</text>
</g>
<!-- \\AppBundle\\Repository\\MembreRepository&#45;&gt;\\Doctrine\\ORM\\EntityRepository -->
<g id="edge1" class="edge">
<title>\\AppBundle\\Repository\\MembreRepository&#45;&gt;\\Doctrine\\ORM\\EntityRepository</title>
<path fill="none" stroke="#000000" d="M530.6962,-1834.0606C515.8325,-1830.2594 499.9925,-1826.0892 485.3594,-1822 414.8965,-1802.309 334.6354,-1777.5414 280.8777,-1760.6107"/>
<polygon fill="none" stroke="#000000" points="281.7464,-1757.2148 271.1567,-1757.5436 279.6401,-1763.8904 281.7464,-1757.2148"/>
</g>
<!-- \\AppBundle\\Repository\\SortieRepository -->
<g id="node2" class="node">
<title>\\AppBundle\\Repository\\SortieRepository</title>
<polygon fill="none" stroke="#000000" points="651.9879,-1813 530.7523,-1813 530.7523,-1777 651.9879,-1777 651.9879,-1813"/>
<text text-anchor="middle" x="591.3701" y="-1791.7" font-family="Courier,monospace" font-size="11.00" fill="#000000">SortieRepository</text>
</g>
<!-- \\AppBundle\\Repository\\SortieRepository&#45;&gt;\\Doctrine\\ORM\\EntityRepository -->
<g id="edge2" class="edge">
<title>\\AppBundle\\Repository\\SortieRepository&#45;&gt;\\Doctrine\\ORM\\EntityRepository</title>
<path fill="none" stroke="#000000" d="M530.3599,-1786.1435C473.112,-1777.8331 386.4623,-1765.2546 319.1559,-1755.4841"/>
<polygon fill="none" stroke="#000000" points="319.3491,-1751.9755 308.9499,-1754.0025 318.3434,-1758.9029 319.3491,-1751.9755"/>
</g>
<!-- \\AppBundle\\Repository\\SiteRepository -->
<g id="node3" class="node">
<title>\\AppBundle\\Repository\\SiteRepository</title>
<polygon fill="none" stroke="#000000" points="645.786,-1759 536.9543,-1759 536.9543,-1723 645.786,-1723 645.786,-1759"/>
<text text-anchor="middle" x="591.3701" y="-1737.7" font-family="Courier,monospace" font-size="11.00" fill="#000000">SiteRepository</text>
</g>
<!-- \\AppBundle\\Repository\\SiteRepository&#45;&gt;\\Doctrine\\ORM\\EntityRepository -->
<g id="edge23" class="edge">
<title>\\AppBundle\\Repository\\SiteRepository&#45;&gt;\\Doctrine\\ORM\\EntityRepository</title>
<path fill="none" stroke="#000000" d="M536.8811,-1741C490.1418,-1741 420.7189,-1741 358.6986,-1741"/>
<polygon fill="none" stroke="#000000" points="358.4146,-1737.5001 348.4146,-1741 358.4146,-1744.5001 358.4146,-1737.5001"/>
</g>
<!-- \\AppBundle\\Repository\\SuivisortieRepository -->
<g id="node4" class="node">
<title>\\AppBundle\\Repository\\SuivisortieRepository</title>
<polygon fill="none" stroke="#000000" points="668.4932,-1705 514.2471,-1705 514.2471,-1669 668.4932,-1669 668.4932,-1705"/>
<text text-anchor="middle" x="591.3701" y="-1683.7" font-family="Courier,monospace" font-size="11.00" fill="#000000">SuivisortieRepository</text>
</g>
<!-- \\AppBundle\\Repository\\SuivisortieRepository&#45;&gt;\\Doctrine\\ORM\\EntityRepository -->
<g id="edge24" class="edge">
<title>\\AppBundle\\Repository\\SuivisortieRepository&#45;&gt;\\Doctrine\\ORM\\EntityRepository</title>
<path fill="none" stroke="#000000" d="M513.8414,-1698.2544C457.2644,-1706.4674 380.1052,-1717.6682 318.9638,-1726.5438"/>
<polygon fill="none" stroke="#000000" points="318.3013,-1723.1032 308.9078,-1728.0036 319.307,-1730.0306 318.3013,-1723.1032"/>
</g>
<!-- \\AppBundle\\Repository\\NewsRepository -->
<g id="node5" class="node">
<title>\\AppBundle\\Repository\\NewsRepository</title>
<polygon fill="none" stroke="#000000" points="645.786,-1651 536.9543,-1651 536.9543,-1615 645.786,-1615 645.786,-1651"/>
<text text-anchor="middle" x="591.3701" y="-1629.7" font-family="Courier,monospace" font-size="11.00" fill="#000000">NewsRepository</text>
</g>
<!-- \\AppBundle\\Repository\\NewsRepository&#45;&gt;\\Doctrine\\ORM\\EntityRepository -->
<g id="edge25" class="edge">
<title>\\AppBundle\\Repository\\NewsRepository&#45;&gt;\\Doctrine\\ORM\\EntityRepository</title>
<path fill="none" stroke="#000000" d="M537.0391,-1646.3243C520.4115,-1650.54 502.096,-1655.3229 485.3594,-1660 414.8965,-1679.691 334.6354,-1704.4586 280.8777,-1721.3893"/>
<polygon fill="none" stroke="#000000" points="279.6401,-1718.1096 271.1567,-1724.4564 281.7464,-1724.7852 279.6401,-1718.1096"/>
</g>
<!-- \\AppBundle\\Controller\\SortieController -->
<g id="node6" class="node">
<title>\\AppBundle\\Controller\\SortieController</title>
<polygon fill="none" stroke="#000000" points="651.9879,-1518 530.7523,-1518 530.7523,-1482 651.9879,-1482 651.9879,-1518"/>
<text text-anchor="middle" x="591.3701" y="-1496.7" font-family="Courier,monospace" font-size="11.00" fill="#000000">SortieController</text>
</g>
<!-- \\Symfony\\Bundle\\FrameworkBundle\\Controller\\Controller -->
<g id="node34" class="node">
<title>\\Symfony\\Bundle\\FrameworkBundle\\Controller\\Controller</title>
<ellipse fill="none" stroke="#000000" cx="219.3792" cy="-1392" rx="219.2584" ry="18"/>
<text text-anchor="middle" x="219.3792" y="-1387.8" font-family="Times,serif" font-size="14.00" fill="#c0c0c0">\Symfony\Bundle\FrameworkBundle\Controller\Controller</text>
</g>
<!-- \\AppBundle\\Controller\\SortieController&#45;&gt;\\Symfony\\Bundle\\FrameworkBundle\\Controller\\Controller -->
<g id="edge3" class="edge">
<title>\\AppBundle\\Controller\\SortieController&#45;&gt;\\Symfony\\Bundle\\FrameworkBundle\\Controller\\Controller</title>
<path fill="none" stroke="#000000" d="M530.6962,-1485.0606C515.8325,-1481.2594 499.9925,-1477.0892 485.3594,-1473 416.2095,-1453.676 337.6231,-1429.4627 283.9101,-1412.5653"/>
<polygon fill="none" stroke="#000000" points="284.7677,-1409.1659 274.1781,-1409.4981 282.6636,-1415.8422 284.7677,-1409.1659"/>
</g>
<!-- \\AppBundle\\Controller\\DefaultController -->
<g id="node7" class="node">
<title>\\AppBundle\\Controller\\DefaultController</title>
<polygon fill="none" stroke="#000000" points="655.5886,-1464 527.1517,-1464 527.1517,-1428 655.5886,-1428 655.5886,-1464"/>
<text text-anchor="middle" x="591.3701" y="-1442.7" font-family="Courier,monospace" font-size="11.00" fill="#000000">DefaultController</text>
</g>
<!-- \\AppBundle\\Controller\\DefaultController&#45;&gt;\\Symfony\\Bundle\\FrameworkBundle\\Controller\\Controller -->
<g id="edge5" class="edge">
<title>\\AppBundle\\Controller\\DefaultController&#45;&gt;\\Symfony\\Bundle\\FrameworkBundle\\Controller\\Controller</title>
<path fill="none" stroke="#000000" d="M526.9989,-1436.6556C474.8888,-1429.091 400.0973,-1418.2339 337.3099,-1409.1194"/>
<polygon fill="none" stroke="#000000" points="337.7404,-1405.6453 327.3413,-1407.6723 336.7347,-1412.5727 337.7404,-1405.6453"/>
</g>
<!-- \\AppBundle\\Controller\\RegistrationController -->
<g id="node8" class="node">
<title>\\AppBundle\\Controller\\RegistrationController</title>
<polygon fill="none" stroke="#000000" points="672.0939,-1194 510.6463,-1194 510.6463,-1158 672.0939,-1158 672.0939,-1194"/>
<text text-anchor="middle" x="591.3701" y="-1172.7" font-family="Courier,monospace" font-size="11.00" fill="#000000">RegistrationController</text>
</g>
<!-- \\FOS\\UserBundle\\Controller\\RegistrationController -->
<g id="node38" class="node">
<title>\\FOS\\UserBundle\\Controller\\RegistrationController</title>
<ellipse fill="none" stroke="#000000" cx="219.3792" cy="-1176" rx="194.1599" ry="18"/>
<text text-anchor="middle" x="219.3792" y="-1171.8" font-family="Times,serif" font-size="14.00" fill="#c0c0c0">\FOS\UserBundle\Controller\RegistrationController</text>
</g>
<!-- \\AppBundle\\Controller\\RegistrationController&#45;&gt;\\FOS\\UserBundle\\Controller\\RegistrationController -->
<g id="edge10" class="edge">
<title>\\AppBundle\\Controller\\RegistrationController&#45;&gt;\\FOS\\UserBundle\\Controller\\RegistrationController</title>
<path fill="none" stroke="#000000" d="M510.6536,-1176C484.8322,-1176 454.9744,-1176 424.4238,-1176"/>
<polygon fill="none" stroke="#000000" points="424.0415,-1172.5001 414.0414,-1176 424.0414,-1179.5001 424.0415,-1172.5001"/>
</g>
<!-- \\AppBundle\\Controller\\SiteController -->
<g id="node9" class="node">
<title>\\AppBundle\\Controller\\SiteController</title>
<polygon fill="none" stroke="#000000" points="645.786,-1410 536.9543,-1410 536.9543,-1374 645.786,-1374 645.786,-1410"/>
<text text-anchor="middle" x="591.3701" y="-1388.7" font-family="Courier,monospace" font-size="11.00" fill="#000000">SiteController</text>
</g>
<!-- \\AppBundle\\Controller\\SiteController&#45;&gt;\\Symfony\\Bundle\\FrameworkBundle\\Controller\\Controller -->
<g id="edge15" class="edge">
<title>\\AppBundle\\Controller\\SiteController&#45;&gt;\\Symfony\\Bundle\\FrameworkBundle\\Controller\\Controller</title>
<path fill="none" stroke="#000000" d="M536.8811,-1392C512.3744,-1392 481.6316,-1392 448.9895,-1392"/>
<polygon fill="none" stroke="#000000" points="448.803,-1388.5001 438.803,-1392 448.8029,-1395.5001 448.803,-1388.5001"/>
</g>
<!-- \\AppBundle\\Controller\\RegionController -->
<g id="node10" class="node">
<title>\\AppBundle\\Controller\\RegionController</title>
<polygon fill="none" stroke="#000000" points="651.9879,-1356 530.7523,-1356 530.7523,-1320 651.9879,-1320 651.9879,-1356"/>
<text text-anchor="middle" x="591.3701" y="-1334.7" font-family="Courier,monospace" font-size="11.00" fill="#000000">RegionController</text>
</g>
<!-- \\AppBundle\\Controller\\RegionController&#45;&gt;\\Symfony\\Bundle\\FrameworkBundle\\Controller\\Controller -->
<g id="edge16" class="edge">
<title>\\AppBundle\\Controller\\RegionController&#45;&gt;\\Symfony\\Bundle\\FrameworkBundle\\Controller\\Controller</title>
<path fill="none" stroke="#000000" d="M530.3599,-1346.8565C478.2187,-1354.4256 401.6871,-1365.5353 337.5948,-1374.8392"/>
<polygon fill="none" stroke="#000000" points="336.8143,-1371.4158 327.4208,-1376.3162 337.8199,-1378.3432 336.8143,-1371.4158"/>
</g>
<!-- \\AppBundle\\Controller\\ApiController -->
<g id="node11" class="node">
<title>\\AppBundle\\Controller\\ApiController</title>
<polygon fill="none" stroke="#000000" points="642.1843,-1302 540.556,-1302 540.556,-1266 642.1843,-1266 642.1843,-1302"/>
<text text-anchor="middle" x="591.3701" y="-1280.7" font-family="Courier,monospace" font-size="11.00" fill="#000000">ApiController</text>
</g>
<!-- \\AppBundle\\Controller\\ApiController&#45;&gt;\\Symfony\\Bundle\\FrameworkBundle\\Controller\\Controller -->
<g id="edge18" class="edge">
<title>\\AppBundle\\Controller\\ApiController&#45;&gt;\\Symfony\\Bundle\\FrameworkBundle\\Controller\\Controller</title>
<path fill="none" stroke="#000000" d="M540.5559,-1296.4347C523.0217,-1300.8599 503.285,-1305.9907 485.3594,-1311 416.2095,-1330.324 337.6231,-1354.5373 283.9101,-1371.4347"/>
<polygon fill="none" stroke="#000000" points="282.6636,-1368.1578 274.1781,-1374.5019 284.7677,-1374.8341 282.6636,-1368.1578"/>
</g>
<!-- \\AppBundle\\Controller\\MembreController -->
<g id="node12" class="node">
<title>\\AppBundle\\Controller\\MembreController</title>
<polygon fill="none" stroke="#000000" points="651.9879,-1248 530.7523,-1248 530.7523,-1212 651.9879,-1212 651.9879,-1248"/>
<text text-anchor="middle" x="591.3701" y="-1226.7" font-family="Courier,monospace" font-size="11.00" fill="#000000">MembreController</text>
</g>
<!-- \\AppBundle\\Controller\\MembreController&#45;&gt;\\Symfony\\Bundle\\FrameworkBundle\\Controller\\Controller -->
<g id="edge19" class="edge">
<title>\\AppBundle\\Controller\\MembreController&#45;&gt;\\Symfony\\Bundle\\FrameworkBundle\\Controller\\Controller</title>
<path fill="none" stroke="#000000" d="M530.6699,-1243.0135C515.66,-1246.897 499.7595,-1251.5875 485.3594,-1257 400.9912,-1288.7113 308.3973,-1339.7051 257.761,-1369.1035"/>
<polygon fill="none" stroke="#000000" points="255.9766,-1366.0924 249.1048,-1374.1564 259.5055,-1372.1378 255.9766,-1366.0924"/>
</g>
<!-- \\AppBundle\\Controller\\NewsController -->
<g id="node13" class="node">
<title>\\AppBundle\\Controller\\NewsController</title>
<polygon fill="none" stroke="#000000" points="645.786,-1572 536.9543,-1572 536.9543,-1536 645.786,-1536 645.786,-1572"/>
<text text-anchor="middle" x="591.3701" y="-1550.7" font-family="Courier,monospace" font-size="11.00" fill="#000000">NewsController</text>
</g>
<!-- \\AppBundle\\Controller\\NewsController&#45;&gt;\\Symfony\\Bundle\\FrameworkBundle\\Controller\\Controller -->
<g id="edge20" class="edge">
<title>\\AppBundle\\Controller\\NewsController&#45;&gt;\\Symfony\\Bundle\\FrameworkBundle\\Controller\\Controller</title>
<path fill="none" stroke="#000000" d="M537.0023,-1542.5915C520.2053,-1538.4203 501.8039,-1533.181 485.3594,-1527 400.9912,-1495.2887 308.3973,-1444.2949 257.761,-1414.8965"/>
<polygon fill="none" stroke="#000000" points="259.5055,-1411.8622 249.1048,-1409.8436 255.9766,-1417.9076 259.5055,-1411.8622"/>
</g>
<!-- \\AppBundle\\Entity\\Meteo -->
<g id="node14" class="node">
<title>\\AppBundle\\Entity\\Meteo</title>
<polygon fill="none" stroke="#000000" points="618.3701,-1115 564.3701,-1115 564.3701,-1079 618.3701,-1079 618.3701,-1115"/>
<text text-anchor="middle" x="591.3701" y="-1093.7" font-family="Courier,monospace" font-size="11.00" fill="#000000">Meteo</text>
</g>
<!-- \\AppBundle\\Entity\\Membre -->
<g id="node15" class="node">
<title>\\AppBundle\\Entity\\Membre</title>
<polygon fill="none" stroke="#000000" points="618.978,-1061 563.7623,-1061 563.7623,-1025 618.978,-1025 618.978,-1061"/>
<text text-anchor="middle" x="591.3701" y="-1039.7" font-family="Courier,monospace" font-size="11.00" fill="#000000">Membre</text>
</g>
<!-- \\FOS\\UserBundle\\Model\\User -->
<g id="node36" class="node">
<title>\\FOS\\UserBundle\\Model\\User</title>
<ellipse fill="none" stroke="#000000" cx="219.3792" cy="-1043" rx="118.378" ry="18"/>
<text text-anchor="middle" x="219.3792" y="-1038.8" font-family="Times,serif" font-size="14.00" fill="#c0c0c0">\FOS\UserBundle\Model\User</text>
</g>
<!-- \\AppBundle\\Entity\\Membre&#45;&gt;\\FOS\\UserBundle\\Model\\User -->
<g id="edge6" class="edge">
<title>\\AppBundle\\Entity\\Membre&#45;&gt;\\FOS\\UserBundle\\Model\\User</title>
<path fill="none" stroke="#000000" d="M563.7143,-1043C518.5135,-1043 426.0528,-1043 348.3158,-1043"/>
<polygon fill="none" stroke="#000000" points="347.9398,-1039.5001 337.9397,-1043 347.9397,-1046.5001 347.9398,-1039.5001"/>
</g>
<!-- \\AppBundle\\Entity\\Site -->
<g id="node16" class="node">
<title>\\AppBundle\\Entity\\Site</title>
<polygon fill="none" stroke="#000000" points="618.3701,-1007 564.3701,-1007 564.3701,-971 618.3701,-971 618.3701,-1007"/>
<text text-anchor="middle" x="591.3701" y="-985.7" font-family="Courier,monospace" font-size="11.00" fill="#000000">Site</text>
</g>
<!-- \\AppBundle\\Entity\\Region -->
<g id="node17" class="node">
<title>\\AppBundle\\Entity\\Region</title>
<polygon fill="none" stroke="#000000" points="618.978,-953 563.7623,-953 563.7623,-917 618.978,-917 618.978,-953"/>
<text text-anchor="middle" x="591.3701" y="-931.7" font-family="Courier,monospace" font-size="11.00" fill="#000000">Region</text>
</g>
<!-- \\AppBundle\\Entity\\News -->
<g id="node18" class="node">
<title>\\AppBundle\\Entity\\News</title>
<polygon fill="none" stroke="#000000" points="618.3701,-899 564.3701,-899 564.3701,-863 618.3701,-863 618.3701,-899"/>
<text text-anchor="middle" x="591.3701" y="-877.7" font-family="Courier,monospace" font-size="11.00" fill="#000000">News</text>
</g>
<!-- \\AppBundle\\Entity\\Commentaire -->
<g id="node19" class="node">
<title>\\AppBundle\\Entity\\Commentaire</title>
<polygon fill="none" stroke="#000000" points="635.4828,-845 547.2575,-845 547.2575,-809 635.4828,-809 635.4828,-845"/>
<text text-anchor="middle" x="591.3701" y="-823.7" font-family="Courier,monospace" font-size="11.00" fill="#000000">Commentaire</text>
</g>
<!-- \\AppBundle\\Entity\\Sortie -->
<g id="node20" class="node">
<title>\\AppBundle\\Entity\\Sortie</title>
<polygon fill="none" stroke="#000000" points="618.978,-791 563.7623,-791 563.7623,-755 618.978,-755 618.978,-791"/>
<text text-anchor="middle" x="591.3701" y="-769.7" font-family="Courier,monospace" font-size="11.00" fill="#000000">Sortie</text>
</g>
<!-- \\AppBundle\\Entity\\Suivisortie -->
<g id="node21" class="node">
<title>\\AppBundle\\Entity\\Suivisortie</title>
<polygon fill="none" stroke="#000000" points="635.4828,-737 547.2575,-737 547.2575,-701 635.4828,-701 635.4828,-737"/>
<text text-anchor="middle" x="591.3701" y="-715.7" font-family="Courier,monospace" font-size="11.00" fill="#000000">Suivisortie</text>
</g>
<!-- \\AppBundle\\Form\\RegistrationType -->
<g id="node22" class="node">
<title>\\AppBundle\\Form\\RegistrationType</title>
<polygon fill="none" stroke="#000000" points="651.9879,-658 530.7523,-658 530.7523,-622 651.9879,-622 651.9879,-658"/>
<text text-anchor="middle" x="591.3701" y="-636.7" font-family="Courier,monospace" font-size="11.00" fill="#000000">RegistrationType</text>
</g>
<!-- \\Symfony\\Component\\Form\\AbstractType -->
<g id="node35" class="node">
<title>\\Symfony\\Component\\Form\\AbstractType</title>
<ellipse fill="none" stroke="#000000" cx="219.3792" cy="-532" rx="160.1154" ry="18"/>
<text text-anchor="middle" x="219.3792" y="-527.8" font-family="Times,serif" font-size="14.00" fill="#c0c0c0">\Symfony\Component\Form\AbstractType</text>
</g>
<!-- \\AppBundle\\Form\\RegistrationType&#45;&gt;\\Symfony\\Component\\Form\\AbstractType -->
<g id="edge4" class="edge">
<title>\\AppBundle\\Form\\RegistrationType&#45;&gt;\\Symfony\\Component\\Form\\AbstractType</title>
<path fill="none" stroke="#000000" d="M530.6962,-625.0606C515.8325,-621.2594 499.9925,-617.0892 485.3594,-613 415.553,-593.4925 336.1301,-569.0025 282.3871,-552.086"/>
<polygon fill="none" stroke="#000000" points="283.2487,-548.6879 272.659,-549.0184 281.1435,-555.3638 283.2487,-548.6879"/>
</g>
<!-- \\AppBundle\\Form\\RegionType -->
<g id="node23" class="node">
<title>\\AppBundle\\Form\\RegionType</title>
<polygon fill="none" stroke="#000000" points="632.3809,-604 550.3594,-604 550.3594,-568 632.3809,-568 632.3809,-604"/>
<text text-anchor="middle" x="591.3701" y="-582.7" font-family="Courier,monospace" font-size="11.00" fill="#000000">RegionType</text>
</g>
<!-- \\AppBundle\\Form\\RegionType&#45;&gt;\\Symfony\\Component\\Form\\AbstractType -->
<g id="edge9" class="edge">
<title>\\AppBundle\\Form\\RegionType&#45;&gt;\\Symfony\\Component\\Form\\AbstractType</title>
<path fill="none" stroke="#000000" d="M550.1393,-580.0147C496.824,-572.2752 401.9771,-558.5068 327.4792,-547.6923"/>
<polygon fill="none" stroke="#000000" points="327.9726,-544.2273 317.5735,-546.2544 326.9669,-551.1547 327.9726,-544.2273"/>
</g>
<!-- \\AppBundle\\Form\\SiteType -->
<g id="node24" class="node">
<title>\\AppBundle\\Form\\SiteType</title>
<polygon fill="none" stroke="#000000" points="625.679,-550 557.0613,-550 557.0613,-514 625.679,-514 625.679,-550"/>
<text text-anchor="middle" x="591.3701" y="-528.7" font-family="Courier,monospace" font-size="11.00" fill="#000000">SiteType</text>
</g>
<!-- \\AppBundle\\Form\\SiteType&#45;&gt;\\Symfony\\Component\\Form\\AbstractType -->
<g id="edge13" class="edge">
<title>\\AppBundle\\Form\\SiteType&#45;&gt;\\Symfony\\Component\\Form\\AbstractType</title>
<path fill="none" stroke="#000000" d="M557.0409,-532C518.4562,-532 452.9271,-532 389.8061,-532"/>
<polygon fill="none" stroke="#000000" points="389.7008,-528.5001 379.7008,-532 389.7008,-535.5001 389.7008,-528.5001"/>
</g>
<!-- \\AppBundle\\Form\\SortieType -->
<g id="node25" class="node">
<title>\\AppBundle\\Form\\SortieType</title>
<polygon fill="none" stroke="#000000" points="632.3809,-496 550.3594,-496 550.3594,-460 632.3809,-460 632.3809,-496"/>
<text text-anchor="middle" x="591.3701" y="-474.7" font-family="Courier,monospace" font-size="11.00" fill="#000000">SortieType</text>
</g>
<!-- \\AppBundle\\Form\\SortieType&#45;&gt;\\Symfony\\Component\\Form\\AbstractType -->
<g id="edge17" class="edge">
<title>\\AppBundle\\Form\\SortieType&#45;&gt;\\Symfony\\Component\\Form\\AbstractType</title>
<path fill="none" stroke="#000000" d="M550.1393,-483.9853C496.824,-491.7248 401.9771,-505.4932 327.4792,-516.3077"/>
<polygon fill="none" stroke="#000000" points="326.9669,-512.8453 317.5735,-517.7456 327.9726,-519.7727 326.9669,-512.8453"/>
</g>
<!-- \\AppBundle\\Form\\NewsType -->
<g id="node26" class="node">
<title>\\AppBundle\\Form\\NewsType</title>
<polygon fill="none" stroke="#000000" points="625.679,-442 557.0613,-442 557.0613,-406 625.679,-406 625.679,-442"/>
<text text-anchor="middle" x="591.3701" y="-420.7" font-family="Courier,monospace" font-size="11.00" fill="#000000">NewsType</text>
</g>
<!-- \\AppBundle\\Form\\NewsType&#45;&gt;\\Symfony\\Component\\Form\\AbstractType -->
<g id="edge21" class="edge">
<title>\\AppBundle\\Form\\NewsType&#45;&gt;\\Symfony\\Component\\Form\\AbstractType</title>
<path fill="none" stroke="#000000" d="M556.8881,-432.3544C536.104,-437.4962 509.1382,-444.355 485.3594,-451 415.553,-470.5075 336.1301,-494.9975 282.3871,-511.914"/>
<polygon fill="none" stroke="#000000" points="281.1435,-508.6362 272.659,-514.9816 283.2487,-515.3121 281.1435,-508.6362"/>
</g>
<!-- \\AppBundle\\Tests\\Controller\\RegionControllerTest -->
<g id="node27" class="node">
<title>\\AppBundle\\Tests\\Controller\\RegionControllerTest</title>
<polygon fill="none" stroke="#000000" points="665.3916,-336 517.3486,-336 517.3486,-300 665.3916,-300 665.3916,-336"/>
<text text-anchor="middle" x="591.3701" y="-314.7" font-family="Courier,monospace" font-size="11.00" fill="#000000">RegionControllerTest</text>
</g>
<!-- \\Symfony\\Bundle\\FrameworkBundle\\Test\\WebTestCase -->
<g id="node37" class="node">
<title>\\Symfony\\Bundle\\FrameworkBundle\\Test\\WebTestCase</title>
<ellipse fill="none" stroke="#000000" cx="219.3792" cy="-210" rx="209.1524" ry="18"/>
<text text-anchor="middle" x="219.3792" y="-205.8" font-family="Times,serif" font-size="14.00" fill="#c0c0c0">\Symfony\Bundle\FrameworkBundle\Test\WebTestCase</text>
</g>
<!-- \\AppBundle\\Tests\\Controller\\RegionControllerTest&#45;&gt;\\Symfony\\Bundle\\FrameworkBundle\\Test\\WebTestCase -->
<g id="edge7" class="edge">
<title>\\AppBundle\\Tests\\Controller\\RegionControllerTest&#45;&gt;\\Symfony\\Bundle\\FrameworkBundle\\Test\\WebTestCase</title>
<path fill="none" stroke="#000000" d="M518.8287,-299.9991C507.5997,-297.0757 496.1513,-294.0158 485.3594,-291 416.1001,-271.6454 337.3744,-247.386 283.6553,-230.4851"/>
<polygon fill="none" stroke="#000000" points="284.5134,-227.0859 273.9237,-227.4178 282.4091,-233.7621 284.5134,-227.0859"/>
</g>
<!-- \\AppBundle\\Tests\\Controller\\NewsControllerTest -->
<g id="node28" class="node">
<title>\\AppBundle\\Tests\\Controller\\NewsControllerTest</title>
<polygon fill="none" stroke="#000000" points="658.6896,-282 524.0507,-282 524.0507,-246 658.6896,-246 658.6896,-282"/>
<text text-anchor="middle" x="591.3701" y="-260.7" font-family="Courier,monospace" font-size="11.00" fill="#000000">NewsControllerTest</text>
</g>
<!-- \\AppBundle\\Tests\\Controller\\NewsControllerTest&#45;&gt;\\Symfony\\Bundle\\FrameworkBundle\\Test\\WebTestCase -->
<g id="edge8" class="edge">
<title>\\AppBundle\\Tests\\Controller\\NewsControllerTest&#45;&gt;\\Symfony\\Bundle\\FrameworkBundle\\Test\\WebTestCase</title>
<path fill="none" stroke="#000000" d="M524.0054,-254.221C471.8448,-246.6491 398.3207,-235.976 336.5732,-227.0125"/>
<polygon fill="none" stroke="#000000" points="336.7751,-223.5051 326.3759,-225.5322 335.7694,-230.4325 336.7751,-223.5051"/>
</g>
<!-- \\AppBundle\\Tests\\Controller\\MembreControllerTest -->
<g id="node29" class="node">
<title>\\AppBundle\\Tests\\Controller\\MembreControllerTest</title>
<polygon fill="none" stroke="#000000" points="665.3916,-228 517.3486,-228 517.3486,-192 665.3916,-192 665.3916,-228"/>
<text text-anchor="middle" x="591.3701" y="-206.7" font-family="Courier,monospace" font-size="11.00" fill="#000000">MembreControllerTest</text>
</g>
<!-- \\AppBundle\\Tests\\Controller\\MembreControllerTest&#45;&gt;\\Symfony\\Bundle\\FrameworkBundle\\Test\\WebTestCase -->
<g id="edge12" class="edge">
<title>\\AppBundle\\Tests\\Controller\\MembreControllerTest&#45;&gt;\\Symfony\\Bundle\\FrameworkBundle\\Test\\WebTestCase</title>
<path fill="none" stroke="#000000" d="M516.9863,-210C493.7597,-210 466.8482,-210 438.8919,-210"/>
<polygon fill="none" stroke="#000000" points="438.5499,-206.5001 428.5498,-210 438.5498,-213.5001 438.5499,-206.5001"/>
</g>
<!-- \\AppBundle\\Tests\\Controller\\SortieControllerTest -->
<g id="node30" class="node">
<title>\\AppBundle\\Tests\\Controller\\SortieControllerTest</title>
<polygon fill="none" stroke="#000000" points="665.3916,-174 517.3486,-174 517.3486,-138 665.3916,-138 665.3916,-174"/>
<text text-anchor="middle" x="591.3701" y="-152.7" font-family="Courier,monospace" font-size="11.00" fill="#000000">SortieControllerTest</text>
</g>
<!-- \\AppBundle\\Tests\\Controller\\SortieControllerTest&#45;&gt;\\Symfony\\Bundle\\FrameworkBundle\\Test\\WebTestCase -->
<g id="edge14" class="edge">
<title>\\AppBundle\\Tests\\Controller\\SortieControllerTest&#45;&gt;\\Symfony\\Bundle\\FrameworkBundle\\Test\\WebTestCase</title>
<path fill="none" stroke="#000000" d="M516.9863,-166.7979C465.2755,-174.3045 395.3,-184.4625 336.1941,-193.0426"/>
<polygon fill="none" stroke="#000000" points="335.4442,-189.6147 326.0508,-194.515 336.4499,-196.5421 335.4442,-189.6147"/>
</g>
<!-- \\AppBundle\\Tests\\Controller\\SiteControllerTest -->
<g id="node31" class="node">
<title>\\AppBundle\\Tests\\Controller\\SiteControllerTest</title>
<polygon fill="none" stroke="#000000" points="658.6896,-120 524.0507,-120 524.0507,-84 658.6896,-84 658.6896,-120"/>
<text text-anchor="middle" x="591.3701" y="-98.7" font-family="Courier,monospace" font-size="11.00" fill="#000000">SiteControllerTest</text>
</g>
<!-- \\AppBundle\\Tests\\Controller\\SiteControllerTest&#45;&gt;\\Symfony\\Bundle\\FrameworkBundle\\Test\\WebTestCase -->
<g id="edge22" class="edge">
<title>\\AppBundle\\Tests\\Controller\\SiteControllerTest&#45;&gt;\\Symfony\\Bundle\\FrameworkBundle\\Test\\WebTestCase</title>
<path fill="none" stroke="#000000" d="M523.949,-118.6733C511.1077,-121.9898 497.7975,-125.5241 485.3594,-129 416.1001,-148.3546 337.3744,-172.614 283.6553,-189.5149"/>
<polygon fill="none" stroke="#000000" points="282.4091,-186.2379 273.9237,-192.5822 284.5134,-192.9141 282.4091,-186.2379"/>
</g>
<!-- \\AppBundle\\AppBundle -->
<g id="node32" class="node">
<title>\\AppBundle\\AppBundle</title>
<polygon fill="none" stroke="#000000" points="629.2809,-60 553.4593,-60 553.4593,-24 629.2809,-24 629.2809,-60"/>
<text text-anchor="middle" x="591.3701" y="-38.7" font-family="Courier,monospace" font-size="11.00" fill="#000000">AppBundle</text>
</g>
<!-- \\Symfony\\Component\\HttpKernel\\Bundle\\Bundle -->
<g id="node39" class="node">
<title>\\Symfony\\Component\\HttpKernel\\Bundle\\Bundle</title>
<ellipse fill="none" stroke="#000000" cx="219.3792" cy="-42" rx="186.9264" ry="18"/>
<text text-anchor="middle" x="219.3792" y="-37.8" font-family="Times,serif" font-size="14.00" fill="#c0c0c0">\Symfony\Component\HttpKernel\Bundle\Bundle</text>
</g>
<!-- \\AppBundle\\AppBundle&#45;&gt;\\Symfony\\Component\\HttpKernel\\Bundle\\Bundle -->
<g id="edge11" class="edge">
<title>\\AppBundle\\AppBundle&#45;&gt;\\Symfony\\Component\\HttpKernel\\Bundle\\Bundle</title>
<path fill="none" stroke="#000000" d="M553.6545,-42C520.4244,-42 469.2753,-42 416.9025,-42"/>
<polygon fill="none" stroke="#000000" points="416.7657,-38.5001 406.7656,-42 416.7656,-45.5001 416.7657,-38.5001"/>
</g>
</g>
</svg>
